<?xml version="1.0" encoding="UTF-8"?>
<svg width="46px" height="83px" viewBox="0 0 46 83" version="1.1" xmlns="http://www.w3.org/2000/svg" xmlns:xlink="http://www.w3.org/1999/xlink">
    <!-- Generator: Sketch 48.2 (47327) - http://www.bohemiancoding.com/sketch -->
    <title>AlertHotspotMarker</title>
    <desc>Created with Sketch.</desc>
    <defs>
        <filter x="-17.1%" y="-11.2%" width="134.2%" height="126.5%" filterUnits="objectBoundingBox" id="filter-1">
            <feOffset dx="0" dy="1" in="SourceAlpha" result="shadowOffsetOuter1"></feOffset>
            <feGaussianBlur stdDeviation="2" in="shadowOffsetOuter1" result="shadowBlurOuter1"></feGaussianBlur>
            <feColorMatrix values="0 0 0 0 0   0 0 0 0 0   0 0 0 0 0  0 0 0 0.5 0" type="matrix" in="shadowBlurOuter1" result="shadowMatrixOuter1"></feColorMatrix>
            <feMerge>
                <feMergeNode in="shadowMatrixOuter1"></feMergeNode>
                <feMergeNode in="SourceGraphic"></feMergeNode>
            </feMerge>
        </filter>
        <rect id="path-2" x="0" y="0" width="38" height="49" rx="4"></rect>
        <filter x="-74.0%" y="-37.5%" width="248.0%" height="202.8%" filterUnits="objectBoundingBox" id="filter-3">
            <feOffset dx="0" dy="5" in="SourceAlpha" result="shadowOffsetOuter1"></feOffset>
            <feGaussianBlur stdDeviation="5" in="shadowOffsetOuter1" result="shadowBlurOuter1"></feGaussianBlur>
            <feColorMatrix values="0 0 0 0 0   0 0 0 0 0   0 0 0 0 0  0 0 0 0.752179574 0" type="matrix" in="shadowBlurOuter1" result="shadowMatrixOuter1"></feColorMatrix>
            <feMerge>
                <feMergeNode in="shadowMatrixOuter1"></feMergeNode>
                <feMergeNode in="SourceGraphic"></feMergeNode>
            </feMerge>
        </filter>
    </defs>
    <g id="AlertHotspotMarker-degradation" stroke="none" stroke-width="1" fill="none" fill-rule="evenodd" transform="translate(-27.000000, -18.000000)">
        <g id="AlertHotspotMarker" transform="translate(31.000000, 21.000000)">
            <g id="drive-ms-word" filter="url(#filter-1)">
                <g id="Rectangle-2">
                    <use fill="#FFFFFF" fill-rule="evenodd" xlink:href="#path-2"></use>
                    <rect stroke="#009688" stroke-width="1" x="0.5" y="0.5" width="37" height="48" rx="4"></rect>
                </g>
            </g>
            <ellipse id="Oval" stroke="#F5A623" fill="#D8D8D8" cx="19.5" cy="65" rx="13.5" ry="6"></ellipse>
            <g id="place" filter="url(#filter-3)" transform="translate(7.000000, 30.000000)" fill="#4A4A4A" stroke="#FFFFFF">
                <path d="M12.5,0 C5.53571429,0 0,5.53571429 0,12.5 C0,21.7857143 12.5,35.7142857 12.5,35.7142857 C12.5,35.7142857 25,21.7857143 25,12.5 C25,5.53571429 19.4642857,0 12.5,0 L12.5,0 Z M12.5,16.9642857 C10,16.9642857 8.03571429,15 8.03571429,12.5 C8.03571429,10 10,8.03571429 12.5,8.03571429 C15,8.03571429 16.9642857,10 16.9642857,12.5 C16.9642857,15 15,16.9642857 12.5,16.9642857 L12.5,16.9642857 Z" id="Shape"></path>
            </g>
            <rect id="Rectangle-9" fill="#009688" x="5" y="6" width="28" height="22"></rect>
            <polyline id="Line" stroke="#FFFFFF" stroke-linecap="square" points="13.5 12.5 9.5 16.5 15.48531 19.5693336 13.5 23.6125994"></polyline>
            <path d="M7.5,5.5 L13.5,12.5" id="Line-5" stroke="#FFFFFF" stroke-linecap="square"></path>
            <g id="keyboard-alt" transform="translate(17.000000, 8.000000)" fill="#FFFFFF">
                <path d="M8.775,5.85 C9.295,5.85 9.75,5.395 9.75,4.875 C9.75,4.355 9.295,3.9 8.775,3.9 C8.255,3.9 7.8,4.355 7.8,4.875 C7.8,5.395 8.255,5.85 8.775,5.85 L8.775,5.85 Z M4.225,5.85 C4.745,5.85 5.2,5.395 5.2,4.875 C5.2,4.355 4.745,3.9 4.225,3.9 C3.705,3.9 3.25,4.355 3.25,4.875 C3.25,5.395 3.705,5.85 4.225,5.85 L4.225,5.85 Z M6.5,7.8 C4.81,7.8 3.38,8.905 2.795,10.4 L10.205,10.4 C9.62,8.905 8.19,7.8 6.5,7.8 L6.5,7.8 Z M6.5,0 C2.925,0 0,2.925 0,6.5 C0,10.075 2.925,13 6.5,13 C10.075,13 13,10.075 13,6.5 C13,2.925 10.075,0 6.5,0 L6.5,0 Z M6.5,11.7 C3.64,11.7 1.3,9.36 1.3,6.5 C1.3,3.64 3.64,1.3 6.5,1.3 C9.36,1.3 11.7,3.64 11.7,6.5 C11.7,9.36 9.36,11.7 6.5,11.7 L6.5,11.7 Z" id="Shape"></path>
            </g>
        </g>
    </g>
</svg>