<?xml version="1.0" encoding="UTF-8"?>
<svg width="46px" height="83px" viewBox="0 0 46 83" version="1.1" xmlns="http://www.w3.org/2000/svg" xmlns:xlink="http://www.w3.org/1999/xlink">
    <!-- Generator: Sketch 48.2 (47327) - http://www.bohemiancoding.com/sketch -->
    <title>AlertHotspotMarker</title>
    <desc>Created with Sketch.</desc>
    <defs>
        <filter x="-17.1%" y="-11.2%" width="134.2%" height="126.5%" filterUnits="objectBoundingBox" id="filter-1">
            <feOffset dx="0" dy="1" in="SourceAlpha" result="shadowOffsetOuter1"></feOffset>
            <feGaussianBlur stdDeviation="2" in="shadowOffsetOuter1" result="shadowBlurOuter1"></feGaussianBlur>
            <feColorMatrix values="0 0 0 0 0   0 0 0 0 0   0 0 0 0 0  0 0 0 0.5 0" type="matrix" in="shadowBlurOuter1" result="shadowMatrixOuter1"></feColorMatrix>
            <feMerge>
                <feMergeNode in="shadowMatrixOuter1"></feMergeNode>
                <feMergeNode in="SourceGraphic"></feMergeNode>
            </feMerge>
        </filter>
        <rect id="path-2" x="0" y="0" width="38" height="49" rx="4"></rect>
        <filter x="-74.0%" y="-37.5%" width="248.0%" height="202.8%" filterUnits="objectBoundingBox" id="filter-3">
            <feOffset dx="0" dy="5" in="SourceAlpha" result="shadowOffsetOuter1"></feOffset>
            <feGaussianBlur stdDeviation="5" in="shadowOffsetOuter1" result="shadowBlurOuter1"></feGaussianBlur>
            <feColorMatrix values="0 0 0 0 0   0 0 0 0 0   0 0 0 0 0  0 0 0 0.752179574 0" type="matrix" in="shadowBlurOuter1" result="shadowMatrixOuter1"></feColorMatrix>
            <feMerge>
                <feMergeNode in="shadowMatrixOuter1"></feMergeNode>
                <feMergeNode in="SourceGraphic"></feMergeNode>
            </feMerge>
        </filter>
    </defs>
    <g id="AlertHotspotMarker-mobilite-reduite" stroke="none" stroke-width="1" fill="none" fill-rule="evenodd" transform="translate(-27.000000, -18.000000)">
        <g id="AlertHotspotMarker" transform="translate(31.000000, 21.000000)">
            <g id="drive-ms-word" filter="url(#filter-1)">
                <g id="Rectangle-2">
                    <use fill="#FFFFFF" fill-rule="evenodd" xlink:href="#path-2"></use>
                    <rect stroke="#009688" stroke-width="1" x="0.5" y="0.5" width="37" height="48" rx="4"></rect>
                </g>
            </g>
            <ellipse id="Oval" stroke="#F5A623" fill="#D8D8D8" cx="19.5" cy="65" rx="13.5" ry="6"></ellipse>
            <g id="place" filter="url(#filter-3)" transform="translate(7.000000, 30.000000)" fill="#4A4A4A" stroke="#FFFFFF">
                <path d="M12.5,0 C5.53571429,0 0,5.53571429 0,12.5 C0,21.7857143 12.5,35.7142857 12.5,35.7142857 C12.5,35.7142857 25,21.7857143 25,12.5 C25,5.53571429 19.4642857,0 12.5,0 L12.5,0 Z M12.5,16.9642857 C10,16.9642857 8.03571429,15 8.03571429,12.5 C8.03571429,10 10,8.03571429 12.5,8.03571429 C15,8.03571429 16.9642857,10 16.9642857,12.5 C16.9642857,15 15,16.9642857 12.5,16.9642857 L12.5,16.9642857 Z" id="Shape"></path>
            </g>
            <rect id="Rectangle-9" fill="#2567C2" x="5" y="6" width="28" height="22"></rect>
            <circle id="Oval-2" stroke="#FFFFFF" cx="16.5" cy="20.5" r="5.5"></circle>
            <rect id="Rectangle" fill="#2567C2" transform="translate(19.500000, 16.500000) rotate(44.000000) translate(-19.500000, -16.500000) " x="13" y="13" width="13" height="7"></rect>
            <rect id="Rectangle-10" fill="#FFFFFF" x="15" y="13" width="3" height="8" rx="1.5"></rect>
            <rect id="Rectangle-10" fill="#FFFFFF" transform="translate(19.500000, 18.500000) rotate(72.000000) translate(-19.500000, -18.500000) " x="18" y="14" width="3" height="9" rx="1.5"></rect>
            <rect id="Rectangle-10" fill="#FFFFFF" transform="translate(23.743280, 20.817161) rotate(156.000000) translate(-23.743280, -20.817161) " x="22.2432798" y="16.3171612" width="3" height="9" rx="1.5"></rect>
            <circle id="Oval-6" fill="#FFFFFF" cx="17" cy="10" r="2"></circle>
        </g>
    </g>
</svg>
