<?xml version="1.0" encoding="UTF-8"?>
<svg width="46px" height="83px" viewBox="0 0 46 83" version="1.1" xmlns="http://www.w3.org/2000/svg" xmlns:xlink="http://www.w3.org/1999/xlink">
    <!-- Generator: Sketch 48.2 (47327) - http://www.bohemiancoding.com/sketch -->
    <title>AlertHotspotMarker</title>
    <desc>Created with Sketch.</desc>
    <defs>
        <filter x="-17.1%" y="-11.2%" width="134.2%" height="126.5%" filterUnits="objectBoundingBox" id="filter-1">
            <feOffset dx="0" dy="1" in="SourceAlpha" result="shadowOffsetOuter1"></feOffset>
            <feGaussianBlur stdDeviation="2" in="shadowOffsetOuter1" result="shadowBlurOuter1"></feGaussianBlur>
            <feColorMatrix values="0 0 0 0 0   0 0 0 0 0   0 0 0 0 0  0 0 0 0.5 0" type="matrix" in="shadowBlurOuter1" result="shadowMatrixOuter1"></feColorMatrix>
            <feMerge>
                <feMergeNode in="shadowMatrixOuter1"></feMergeNode>
                <feMergeNode in="SourceGraphic"></feMergeNode>
            </feMerge>
        </filter>
        <rect id="path-2" x="0" y="0" width="38" height="49" rx="4"></rect>
        <filter x="-74.0%" y="-37.5%" width="248.0%" height="202.8%" filterUnits="objectBoundingBox" id="filter-3">
            <feOffset dx="0" dy="5" in="SourceAlpha" result="shadowOffsetOuter1"></feOffset>
            <feGaussianBlur stdDeviation="5" in="shadowOffsetOuter1" result="shadowBlurOuter1"></feGaussianBlur>
            <feColorMatrix values="0 0 0 0 0   0 0 0 0 0   0 0 0 0 0  0 0 0 0.752179574 0" type="matrix" in="shadowBlurOuter1" result="shadowMatrixOuter1"></feColorMatrix>
            <feMerge>
                <feMergeNode in="shadowMatrixOuter1"></feMergeNode>
                <feMergeNode in="SourceGraphic"></feMergeNode>
            </feMerge>
        </filter>
    </defs>
    <g id="AlertHotspotMarker-Accident" stroke="none" stroke-width="1" fill="none" fill-rule="evenodd" transform="translate(-27.000000, -18.000000)">
        <g id="AlertHotspotMarker" transform="translate(31.000000, 21.000000)">
            <g id="drive-ms-word" filter="url(#filter-1)">
                <g id="Rectangle-2">
                    <use fill="#FFFFFF" fill-rule="evenodd" xlink:href="#path-2"></use>
                    <rect stroke="#009688" stroke-width="1" x="0.5" y="0.5" width="37" height="48" rx="4"></rect>
                </g>
            </g>
            <ellipse id="Oval" stroke="#F5A623" fill="#D8D8D8" cx="19.5" cy="65" rx="13.5" ry="6"></ellipse>
            <g id="place" filter="url(#filter-3)" transform="translate(7.000000, 30.000000)" fill="#4A4A4A" stroke="#FFFFFF">
                <path d="M12.5,0 C5.53571429,0 0,5.53571429 0,12.5 C0,21.7857143 12.5,35.7142857 12.5,35.7142857 C12.5,35.7142857 25,21.7857143 25,12.5 C25,5.53571429 19.4642857,0 12.5,0 L12.5,0 Z M12.5,16.9642857 C10,16.9642857 8.03571429,15 8.03571429,12.5 C8.03571429,10 10,8.03571429 12.5,8.03571429 C15,8.03571429 16.9642857,10 16.9642857,12.5 C16.9642857,15 15,16.9642857 12.5,16.9642857 L12.5,16.9642857 Z" id="Shape"></path>
            </g>
            <g id="flash-on" transform="translate(24.000000, 7.000000)" fill="#009688">
                <polygon id="Shape" transform="translate(6.000000, 7.000000) rotate(33.000000) translate(-6.000000, -7.000000) " points="3 1 3 7.6 4.8 7.6 4.8 13 9 5.8 6.6 5.8 9 1"></polygon>
            </g>
            <g id="drive-eta" transform="translate(6.000000, 3.000000)" fill="#009688">
                <path d="M16.9,2 C16.7,1.4 16.1,1 15.5,1 L4.5,1 C3.8,1 3.3,1.4 3.1,2 L1,8 L1,16 C1,16.6 1.4,17 2,17 L3,17 C3.6,17 4,16.6 4,16 L4,15 L16,15 L16,16 C16,16.6 16.4,17 17,17 L18,17 C18.6,17 19,16.6 19,16 L19,8 L16.9,2 L16.9,2 Z M4.5,12 C3.7,12 3,11.3 3,10.5 C3,9.7 3.7,9 4.5,9 C5.3,9 6,9.7 6,10.5 C6,11.3 5.3,12 4.5,12 L4.5,12 Z M15.5,12 C14.7,12 14,11.3 14,10.5 C14,9.7 14.7,9 15.5,9 C16.3,9 17,9.7 17,10.5 C17,11.3 16.3,12 15.5,12 L15.5,12 Z M3,7 L4.5,2.5 L15.5,2.5 L17,7 L3,7 L3,7 Z" id="Shape" transform="translate(10.000000, 9.000000) rotate(-3.000000) translate(-10.000000, -9.000000) "></path>
            </g>
            <path d="M10.1580644,20.751653 C14.5563831,20.8561901 15.5015603,20.631495 18.2809589,20.8272258 C22.8187323,21.1467849 26.0191276,21.5240632 27.8821448,21.9590606 C29.6236161,23.0253972 29.4452905,23.8454491 27.347168,24.4192163 C26.2527861,24.7184936 21.4165625,24.07634 17.2466597,23.9418383 C16.2798211,23.9106526 14.3622799,24.4519457 13.5082736,24.5063056 C11.8254764,24.6134203 10.9914472,25.334556 11.006186,26.6697128 C13.6818656,27.2687916 15.6250154,27.4537218 16.8356354,27.2245035" id="Path-3" stroke="#009688" transform="translate(19.612496, 24.031759) rotate(-4.000000) translate(-19.612496, -24.031759) "></path>
        </g>
    </g>
</svg>