<?xml version="1.0" encoding="UTF-8"?>
<svg width="46px" height="83px" viewBox="0 0 46 83" version="1.1" xmlns="http://www.w3.org/2000/svg" xmlns:xlink="http://www.w3.org/1999/xlink">
    <!-- Generator: Sketch 48.2 (47327) - http://www.bohemiancoding.com/sketch -->
    <title>EventHotspotMarker</title>
    <desc>Created with Sketch.</desc>
    <defs>
        <filter x="-17.1%" y="-11.2%" width="134.2%" height="126.5%" filterUnits="objectBoundingBox" id="filter-1">
            <feOffset dx="0" dy="1" in="SourceAlpha" result="shadowOffsetOuter1"></feOffset>
            <feGaussianBlur stdDeviation="2" in="shadowOffsetOuter1" result="shadowBlurOuter1"></feGaussianBlur>
            <feColorMatrix values="0 0 0 0 0   0 0 0 0 0   0 0 0 0 0  0 0 0 0.5 0" type="matrix" in="shadowBlurOuter1" result="shadowMatrixOuter1"></feColorMatrix>
            <feMerge>
                <feMergeNode in="shadowMatrixOuter1"></feMergeNode>
                <feMergeNode in="SourceGraphic"></feMergeNode>
            </feMerge>
        </filter>
        <rect id="path-2" x="0" y="0" width="38" height="49" rx="4"></rect>
        <filter x="-74.0%" y="-37.5%" width="248.0%" height="202.8%" filterUnits="objectBoundingBox" id="filter-3">
            <feOffset dx="0" dy="5" in="SourceAlpha" result="shadowOffsetOuter1"></feOffset>
            <feGaussianBlur stdDeviation="5" in="shadowOffsetOuter1" result="shadowBlurOuter1"></feGaussianBlur>
            <feColorMatrix values="0 0 0 0 0   0 0 0 0 0   0 0 0 0 0  0 0 0 0.752179574 0" type="matrix" in="shadowBlurOuter1" result="shadowMatrixOuter1"></feColorMatrix>
            <feMerge>
                <feMergeNode in="shadowMatrixOuter1"></feMergeNode>
                <feMergeNode in="SourceGraphic"></feMergeNode>
            </feMerge>
        </filter>
    </defs>
    <g id="EventHotspotMarker" stroke="none" stroke-width="1" fill="none" fill-rule="evenodd" transform="translate(-27.000000, -18.000000)">
        <g transform="translate(31.000000, 21.000000)">
            <g id="drive-ms-word" filter="url(#filter-1)">
                <g id="Rectangle-2">
                    <use fill="#FFFFFF" fill-rule="evenodd" xlink:href="#path-2"></use>
                    <rect stroke="#009688" stroke-width="1" x="0.5" y="0.5" width="37" height="48" rx="4"></rect>
                </g>
            </g>
            <ellipse id="Oval" stroke="#F5A623" fill="#D8D8D8" cx="19.5" cy="65" rx="13.5" ry="6"></ellipse>
            <g id="place" filter="url(#filter-3)" transform="translate(7.000000, 30.000000)" fill="#4A4A4A" stroke="#FFFFFF">
                <path d="M12.5,0 C5.53571429,0 0,5.53571429 0,12.5 C0,21.7857143 12.5,35.7142857 12.5,35.7142857 C12.5,35.7142857 25,21.7857143 25,12.5 C25,5.53571429 19.4642857,0 12.5,0 L12.5,0 Z M12.5,16.9642857 C10,16.9642857 8.03571429,15 8.03571429,12.5 C8.03571429,10 10,8.03571429 12.5,8.03571429 C15,8.03571429 16.9642857,10 16.9642857,12.5 C16.9642857,15 15,16.9642857 12.5,16.9642857 L12.5,16.9642857 Z" id="Shape"></path>
            </g>
            <path d="M27.4285714,5 L26,5 L26,6.42857143 L27.4285714,6.42857143 C28.6121429,6.42857143 29.5714286,7.38785714 29.5714286,8.57142857 L29.5714286,10 L31,10 L31,8.57142857 C31,6.59857143 29.4014286,5 27.4285714,5 L27.4285714,5 Z M19.5,25 C14.805875,25 11,21.1948333 11,16.5 C11,11.805875 14.805875,8 19.5,8 C24.194125,8 28,11.805875 28,16.5 C28,21.1948333 24.194125,25 19.5,25 L19.5,25 Z M29,16.2666667 C29,10.5972667 24.5228571,6 19,6 C13.4771429,6 9,10.5972667 9,16.2666667 C9,20.1555333 11.1064286,23.5376667 14.2114286,25.2800667 L11.8571429,28 L14,28 L15.9178571,26.031 C16.8892857,26.3544 17.9235714,26.5333333 19,26.5333333 C20.0764286,26.5333333 21.1107143,26.3544 22.0821429,26.031 L24,28 L26.1428571,28 L23.7892857,25.2800667 C26.8935714,23.5376667 29,20.1555333 29,16.2666667 L29,16.2666667 Z M24.3333333,15.6 L20.3333333,15.6 L20.3333333,10.7 C20.3333333,10.3129 20.0353333,10 19.6666667,10 C19.298,10 19,10.3129 19,10.7 L19,16.3 C19,16.6871 19.298,17 19.6666667,17 L24.3333333,17 C24.702,17 25,16.6871 25,16.3 C25,15.9136 24.702,15.6 24.3333333,15.6 L24.3333333,15.6 Z M9.42857143,8.57142857 C9.42857143,7.38785714 10.3878571,6.42857143 11.5714286,6.42857143 L13,6.42857143 L13,5 L11.5714286,5 C9.59857143,5 8,6.59857143 8,8.57142857 L8,10 L9.42857143,10 L9.42857143,8.57142857 L9.42857143,8.57142857 Z" id="Fill-167" fill="#009688"></path>
        </g>
    </g>
</svg>