<?xml version="1.0" encoding="UTF-8"?>
<svg width="123px" height="140px" viewBox="0 0 123 140" version="1.1" xmlns="http://www.w3.org/2000/svg" xmlns:xlink="http://www.w3.org/1999/xlink">
    <!-- Generator: Sketch 48.2 (47327) - http://www.bohemiancoding.com/sketch -->
    <title>logo</title>
    <desc>Created with Sketch.</desc>
    <defs>
        <circle id="path-1" cx="64.5" cy="62.5" r="48.5"></circle>
        <filter x="-2.1%" y="-1.0%" width="104.1%" height="104.1%" filterUnits="objectBoundingBox" id="filter-2">
            <feMorphology radius="0.5" operator="erode" in="SourceAlpha" result="shadowSpreadOuter1"></feMorphology>
            <feOffset dx="0" dy="1" in="shadowSpreadOuter1" result="shadowOffsetOuter1"></feOffset>
            <feGaussianBlur stdDeviation="1" in="shadowOffsetOuter1" result="shadowBlurOuter1"></feGaussianBlur>
            <feColorMatrix values="0 0 0 0 0   0 0 0 0 0   0 0 0 0 0  0 0 0 0.5 0" type="matrix" in="shadowBlurOuter1"></feColorMatrix>
        </filter>
        <path d="M46.7185954,10.0006432 C48.8936241,9.92484663 54.3601864,16.548257 63.1182824,29.8708743 L32,29.9701306 C39.6373682,16.7329355 44.5435667,10.0764397 46.7185954,10.0006432 Z" id="path-3"></path>
        <filter x="-3.2%" y="-10.0%" width="112.9%" height="120.0%" filterUnits="objectBoundingBox" id="filter-4">
            <feOffset dx="1" dy="0" in="SourceAlpha" result="shadowOffsetOuter1"></feOffset>
            <feGaussianBlur stdDeviation="0.5" in="shadowOffsetOuter1" result="shadowBlurOuter1"></feGaussianBlur>
            <feColorMatrix values="0 0 0 0 0   0 0 0 0 0   0 0 0 0 0  0 0 0 0.5 0" type="matrix" in="shadowBlurOuter1"></feColorMatrix>
        </filter>
        <path d="M37.7185954,17.0006432 C39.8936241,16.9248466 45.3601864,23.548257 54.1182824,36.8708743 L23,36.9701306 C30.6373682,23.7329355 35.5435667,17.0764397 37.7185954,17.0006432 Z" id="path-5"></path>
        <filter x="-3.2%" y="-10.0%" width="112.9%" height="120.0%" filterUnits="objectBoundingBox" id="filter-6">
            <feOffset dx="1" dy="0" in="SourceAlpha" result="shadowOffsetOuter1"></feOffset>
            <feGaussianBlur stdDeviation="0.5" in="shadowOffsetOuter1" result="shadowBlurOuter1"></feGaussianBlur>
            <feColorMatrix values="0 0 0 0 0.220849277   0 0 0 0 0.203273007   0 0 0 0 0.203273007  0 0 0 0.5 0" type="matrix" in="shadowBlurOuter1"></feColorMatrix>
        </filter>
    </defs>
    <g id="logo" stroke="none" stroke-width="1" fill="none" fill-rule="evenodd" transform="translate(-30.000000, -1.000000)">
        <g transform="translate(30.000000, 1.000000)">
            <text id="Cityzens" font-family="Amaranth-Regular, Amaranth" font-size="29" font-weight="normal" letter-spacing="-0.970000029" fill="#516167">
                <tspan x="17" y="133">Cityzens</tspan>
            </text>
            <g id="fond">
                <use fill="black" fill-opacity="1" filter="url(#filter-2)" xlink:href="#path-1"></use>
                <use fill="#81C03D" fill-rule="evenodd" xlink:href="#path-1"></use>
            </g>
            <path d="M60.5005813,1.00080609 C63.0867157,0.905811597 69.5865219,9.20681618 80,25.9038198 L43,26.028216 C52.0809197,9.43827055 57.9144468,1.09580059 60.5005813,1.00080609 Z" id="montagne" fill="#739B47"></path>
            <path d="M89.5678189,18.0003486 C90.6861473,17.9592699 93.4968744,21.5488935 98,28.7692194 L82,28.8230123 C85.9268842,21.6489819 88.4494905,18.0414273 89.5678189,18.0003486 Z" id="montagne" fill="#407506"></path>
            <g id="montagne">
                <use fill="black" fill-opacity="1" filter="url(#filter-4)" xlink:href="#path-3"></use>
                <use fill="#407506" fill-rule="evenodd" xlink:href="#path-3"></use>
            </g>
            <g id="montagne">
                <use fill="black" fill-opacity="1" filter="url(#filter-6)" xlink:href="#path-5"></use>
                <use fill="#549012" fill-rule="evenodd" xlink:href="#path-5"></use>
            </g>
            <g id="barriere" transform="translate(40.000000, 62.000000)" stroke="#FFFFFF" stroke-linecap="square">
                <path d="M1.5,1.5 L19.5,1.5" id="Line-3"></path>
                <path d="M1.5,3.5 L19.5,3.5" id="Line-3"></path>
                <path d="M1.5,5.5 L19.5,5.5" id="Line-3"></path>
                <path d="M1.5,6.5 L1.5,0.5" id="Line-3"></path>
                <path d="M7.5,6.5 L7.5,0.5" id="Line-3"></path>
                <path d="M13.5,6.5 L13.5,0.5" id="Line-3"></path>
                <path d="M19.5,6.5 L19.5,0.5" id="Line-3"></path>
            </g>
            <g id="barriere" transform="translate(80.000000, 84.000000)" stroke="#FFFFFF" stroke-linecap="square">
                <path d="M1.5,1.5 L19.5,1.5" id="Line-3"></path>
                <path d="M1.5,3.5 L19.5,3.5" id="Line-3"></path>
                <path d="M1.5,5.5 L19.5,5.5" id="Line-3"></path>
                <path d="M1.5,6.5 L1.5,0.5" id="Line-3"></path>
                <path d="M7.5,6.5 L7.5,0.5" id="Line-3"></path>
                <path d="M13.5,6.5 L13.5,0.5" id="Line-3"></path>
                <path d="M19.5,6.5 L19.5,0.5" id="Line-3"></path>
            </g>
            <g id="barriere" transform="translate(55.000000, 84.000000)" stroke="#FFFFFF" stroke-linecap="square">
                <path d="M1.5,1.5 L19.5,1.5" id="Line-3"></path>
                <path d="M1.5,3.5 L19.5,3.5" id="Line-3"></path>
                <path d="M1.5,5.5 L19.5,5.5" id="Line-3"></path>
                <path d="M1.5,6.5 L1.5,0.5" id="Line-3"></path>
                <path d="M7.5,6.5 L7.5,0.5" id="Line-3"></path>
                <path d="M13.5,6.5 L13.5,0.5" id="Line-3"></path>
                <path d="M19.5,6.5 L19.5,0.5" id="Line-3"></path>
            </g>
            <g id="etang" transform="translate(85.000000, 29.000000)">
                <g id="plage">
                    <ellipse id="Oval" fill="#F8E71C" cx="19.5" cy="23.5" rx="12.5" ry="4.5"></ellipse>
                    <ellipse id="Oval" fill="#F8E71C" cx="12.5" cy="28.5" rx="12.5" ry="4.5"></ellipse>
                    <ellipse id="Oval" fill="#F8E71C" cx="15.5" cy="31.5" rx="12.5" ry="4.5"></ellipse>
                    <ellipse id="Oval-2" fill="#F8E71C" cx="18" cy="37" rx="5" ry="4"></ellipse>
                    <ellipse id="Oval" fill="#F8E71C" cx="25" cy="37.5" rx="6" ry="4.5"></ellipse>
                    <ellipse id="Oval" fill="#4A90E2" cx="23.5" cy="30.5" rx="10.5" ry="5.5"></ellipse>
                    <ellipse id="Oval" fill="#F8E71C" cx="22.5" cy="18.5" rx="12.5" ry="4.5"></ellipse>
                    <ellipse id="Oval" fill="#F8E71C" transform="translate(17.500000, 13.500000) scale(1, -1) rotate(108.000000) translate(-17.500000, -13.500000) " cx="17.5" cy="13.5" rx="12.5" ry="4.5"></ellipse>
                </g>
                <ellipse id="Oval" fill="#4A90E2" cx="28" cy="27.5" rx="6" ry="4.5"></ellipse>
                <ellipse id="Oval" fill="#4A90E2" cx="21" cy="27.5" rx="6" ry="4.5"></ellipse>
                <ellipse id="Oval" fill="#4A90E2" cx="26" cy="35.5" rx="6" ry="4.5"></ellipse>
                <ellipse id="Oval" fill="#4A90E2" cx="15.5" cy="29.5" rx="12.5" ry="4.5"></ellipse>
                <ellipse id="Oval" fill="#4A90E2" cx="22.5" cy="23.5" rx="12.5" ry="4.5"></ellipse>
                <ellipse id="Oval" fill="#4A90E2" cx="25.5" cy="18.5" rx="12.5" ry="4.5"></ellipse>
                <ellipse id="Oval" fill="#4A90E2" transform="translate(19.500000, 15.500000) scale(1, -1) rotate(108.000000) translate(-19.500000, -15.500000) " cx="19.5" cy="15.5" rx="12.5" ry="4.5"></ellipse>
                <ellipse id="Oval-2" fill="#4A90E2" cx="20" cy="36" rx="5" ry="4"></ellipse>
                <path d="M11,29.5268878 C11.5631587,27.2444146 12.895759,28.0001317 14.163231,28.7397193 C15.3798447,29.4496305 16.536452,30.1446807 16.894969,28.1236658" id="Path-4" stroke="#E0FFF8"></path>
                <path d="M16,25.5268878 C16.5631587,23.2444146 17.895759,24.0001317 19.163231,24.7397193 C20.3798447,25.4496305 21.536452,26.1446807 21.894969,24.1236658" id="Path-4" stroke="#E0FFF8"></path>
                <path d="M16,20.5268878 C16.5631587,18.2444146 17.895759,19.0001317 19.163231,19.7397193 C20.3798447,20.4496305 21.536452,21.1446807 21.894969,19.1236658" id="Path-4" stroke="#E0FFF8"></path>
                <path d="M22,17.5268878 C22.5631587,15.2444146 23.895759,16.0001317 25.163231,16.7397193 C26.3798447,17.4496305 27.536452,18.1446807 27.894969,16.1236658" id="Path-4" stroke="#E0FFF8"></path>
                <path d="M25,22.5268878 C25.5631587,20.2444146 26.895759,21.0001317 28.163231,21.7397193 C29.3798447,22.4496305 30.536452,23.1446807 30.894969,21.1236658" id="Path-4" stroke="#E0FFF8"></path>
                <path d="M23,28.5268878 C23.5631587,26.2444146 24.895759,27.0001317 26.163231,27.7397193 C27.3798447,28.4496305 28.536452,29.1446807 28.894969,27.1236658" id="Path-4" stroke="#E0FFF8"></path>
                <path d="M18,33.5268878 C18.5631587,31.2444146 19.895759,32.0001317 21.163231,32.7397193 C22.3798447,33.4496305 23.536452,34.1446807 23.894969,32.1236658" id="Path-4" stroke="#E0FFF8"></path>
            </g>
            <g id="arbre" transform="translate(82.000000, 40.000000)">
                <ellipse id="feuille" fill="#5E9225" cx="4" cy="5" rx="4" ry="5"></ellipse>
                <polygon id="tronc" fill="#C47F41" points="4 4 5 15 3 15"></polygon>
                <polygon id="tronc" fill="#C47F41" transform="translate(2.500000, 7.500000) rotate(-31.000000) translate(-2.500000, -7.500000) " points="2.5 5 3 10 2 10"></polygon>
                <polygon id="tronc" fill="#C47F41" transform="translate(5.500000, 6.500000) rotate(32.000000) translate(-5.500000, -6.500000) " points="5.5 4 6 9 5 9"></polygon>
            </g>
            <g id="arbre" transform="translate(32.000000, 40.000000)">
                <ellipse id="feuille" fill="#5E9225" cx="4" cy="5" rx="4" ry="5"></ellipse>
                <polygon id="tronc" fill="#C47F41" points="4 4 5 15 3 15"></polygon>
                <polygon id="tronc" fill="#C47F41" transform="translate(2.500000, 7.500000) rotate(-31.000000) translate(-2.500000, -7.500000) " points="2.5 5 3 10 2 10"></polygon>
                <polygon id="tronc" fill="#C47F41" transform="translate(5.500000, 6.500000) rotate(32.000000) translate(-5.500000, -6.500000) " points="5.5 4 6 9 5 9"></polygon>
            </g>
            <g id="arbre" transform="translate(22.000000, 50.000000)">
                <ellipse id="feuille" fill="#5E9225" cx="4" cy="5" rx="4" ry="5"></ellipse>
                <polygon id="tronc" fill="#C47F41" points="4 4 5 15 3 15"></polygon>
                <polygon id="tronc" fill="#C47F41" transform="translate(2.500000, 7.500000) rotate(-31.000000) translate(-2.500000, -7.500000) " points="2.5 5 3 10 2 10"></polygon>
                <polygon id="tronc" fill="#C47F41" transform="translate(5.500000, 6.500000) rotate(32.000000) translate(-5.500000, -6.500000) " points="5.5 4 6 9 5 9"></polygon>
            </g>
            <g id="arbre" transform="translate(64.000000, 94.000000)">
                <ellipse id="feuille" fill="#5E9225" cx="3" cy="3.5" rx="3" ry="3.5"></ellipse>
                <polygon id="tronc" fill="#C47F41" points="3 3 4 11 2 11"></polygon>
                <polygon id="tronc" fill="#C47F41" transform="translate(1.500000, 6.000000) rotate(-31.000000) translate(-1.500000, -6.000000) " points="1.5 4 2 8 1 8"></polygon>
                <polygon id="tronc" fill="#C47F41" transform="translate(4.500000, 5.000000) rotate(32.000000) translate(-4.500000, -5.000000) " points="4.5 3 5 7 4 7"></polygon>
            </g>
            <g id="arbre" transform="translate(19.000000, 32.000000)">
                <ellipse id="feuille" fill="#5E9225" cx="3" cy="3.5" rx="3" ry="3.5"></ellipse>
                <polygon id="tronc" fill="#C47F41" points="3 3 4 11 2 11"></polygon>
                <polygon id="tronc" fill="#C47F41" transform="translate(1.500000, 6.000000) rotate(-31.000000) translate(-1.500000, -6.000000) " points="1.5 4 2 8 1 8"></polygon>
                <polygon id="tronc" fill="#C47F41" transform="translate(4.500000, 5.000000) rotate(32.000000) translate(-4.500000, -5.000000) " points="4.5 3 5 7 4 7"></polygon>
            </g>
            <g id="maison" transform="translate(44.000000, 46.000000)">
                <rect id="mur" fill="#D8D8D8" x="1" y="3" width="7" height="11"></rect>
                <rect id="porte" fill="#9B9B9B" x="3" y="10" width="3" height="4"></rect>
                <rect id="fenetre" fill="#9B9B9B" x="5" y="6" width="2" height="2"></rect>
                <rect id="fenetre" fill="#9B9B9B" x="2" y="4" width="2" height="2"></rect>
                <rect id="Rectangle-4" fill="#D0021B" x="0" y="0" width="9" height="3"></rect>
            </g>
            <g id="maison" transform="translate(44.000000, 86.000000)">
                <rect id="mur" fill="#D8D8D8" x="1" y="3" width="7" height="11"></rect>
                <rect id="porte" fill="#9B9B9B" x="3" y="10" width="3" height="4"></rect>
                <rect id="fenetre" fill="#9B9B9B" x="5" y="6" width="2" height="2"></rect>
                <rect id="fenetre" fill="#9B9B9B" x="2" y="4" width="2" height="2"></rect>
                <rect id="Rectangle-4" fill="#D0021B" x="0" y="0" width="9" height="3"></rect>
            </g>
            <g id="maison" transform="translate(65.000000, 48.000000)">
                <rect id="mur" fill="#D8D8D8" x="1" y="3" width="6" height="9"></rect>
                <rect id="porte" fill="#9B9B9B" x="3" y="8" width="3" height="4"></rect>
                <rect id="fenetre" fill="#9B9B9B" x="4" y="5" width="2" height="1"></rect>
                <rect id="fenetre" fill="#9B9B9B" x="2" y="4" width="2" height="1"></rect>
                <rect id="Rectangle-4" fill="#D0021B" x="0" y="0" width="8" height="3"></rect>
            </g>
            <g id="route" transform="translate(16.000000, 71.000000)">
                <rect id="Rectangle-5" fill="#D8D8D8" x="0" y="0" width="97" height="11"></rect>
                <rect id="Rectangle" fill="#FFFFFF" x="2" y="5" width="7" height="1"></rect>
                <rect id="Rectangle" fill="#FFFFFF" x="12" y="5" width="7" height="1"></rect>
                <rect id="Rectangle" fill="#FFFFFF" x="22" y="5" width="7" height="1"></rect>
                <rect id="Rectangle" fill="#FFFFFF" x="32" y="5" width="7" height="1"></rect>
                <rect id="Rectangle" fill="#FFFFFF" x="42" y="5" width="7" height="1"></rect>
                <rect id="Rectangle" fill="#FFFFFF" x="52" y="5" width="7" height="1"></rect>
                <rect id="Rectangle" fill="#FFFFFF" x="62" y="5" width="7" height="1"></rect>
                <rect id="Rectangle" fill="#FFFFFF" x="72" y="5" width="7" height="1"></rect>
                <rect id="Rectangle" fill="#FFFFFF" x="82" y="5" width="7" height="1"></rect>
                <rect id="Rectangle" fill="#FFFFFF" x="92" y="5" width="7" height="1"></rect>
            </g>
            <g id="maison" transform="translate(59.000000, 57.000000)">
                <rect id="mur" fill="#D8D8D8" x="1" y="3" width="7" height="11"></rect>
                <rect id="porte" fill="#9B9B9B" x="3" y="10" width="3" height="4"></rect>
                <rect id="fenetre" fill="#9B9B9B" x="5" y="6" width="2" height="2"></rect>
                <rect id="fenetre" fill="#9B9B9B" x="2" y="4" width="2" height="2"></rect>
                <rect id="Rectangle-4" fill="#D0021B" x="0" y="0" width="9" height="3"></rect>
            </g>
            <g id="maison2" transform="translate(74.000000, 39.000000)">
                <polygon id="Rectangle-6" fill="#D0021B" points="0 1.84253875 3 0 3 2.16540313 0 4"></polygon>
                <polygon id="Rectangle-6" fill="#D0021B" transform="translate(4.500000, 2.500000) scale(-1, 1) translate(-4.500000, -2.500000) " points="3 2.30317344 6 0 6 2.70675392 3 5"></polygon>
                <polygon id="Triangle" fill="#D8D8D8" points="3 2 6 4 0 4"></polygon>
                <rect id="Rectangle-2" fill="#D8D8D8" x="0" y="4" width="6" height="4"></rect>
                <rect id="Rectangle-3" fill="#9B9B9B" x="2" y="6" width="2" height="2"></rect>
            </g>
            <g id="maison2" transform="translate(91.000000, 63.000000)">
                <polygon id="Rectangle-6" fill="#D0021B" points="0 1.84253875 3 0 3 2.16540313 0 4"></polygon>
                <polygon id="Rectangle-6" fill="#D0021B" transform="translate(4.500000, 2.500000) scale(-1, 1) translate(-4.500000, -2.500000) " points="3 2.30317344 6 0 6 2.70675392 3 5"></polygon>
                <polygon id="Triangle" fill="#D8D8D8" points="3 2 6 4 0 4"></polygon>
                <rect id="Rectangle-2" fill="#D8D8D8" x="0" y="4" width="6" height="4"></rect>
                <rect id="Rectangle-3" fill="#9B9B9B" x="2" y="6" width="2" height="2"></rect>
            </g>
            <g id="maison2" transform="translate(67.000000, 63.000000)">
                <polygon id="Rectangle-6" fill="#D0021B" points="0 1.84253875 3 0 3 2.16540313 0 4"></polygon>
                <polygon id="Rectangle-6" fill="#D0021B" transform="translate(4.500000, 2.500000) scale(-1, 1) translate(-4.500000, -2.500000) " points="3 2.30317344 6 0 6 2.70675392 3 5"></polygon>
                <polygon id="Triangle" fill="#D8D8D8" points="3 2 6 4 0 4"></polygon>
                <rect id="Rectangle-2" fill="#D8D8D8" x="0" y="4" width="6" height="4"></rect>
                <rect id="Rectangle-3" fill="#9B9B9B" x="2" y="6" width="2" height="2"></rect>
            </g>
            <g id="maison2" transform="translate(83.000000, 31.000000)">
                <polygon id="Rectangle-6" fill="#D0021B" points="0 1.84253875 3 0 3 2.16540313 0 4"></polygon>
                <polygon id="Rectangle-6" fill="#D0021B" transform="translate(4.500000, 2.500000) scale(-1, 1) translate(-4.500000, -2.500000) " points="3 2.30317344 6 0 6 2.70675392 3 5"></polygon>
                <polygon id="Triangle" fill="#D8D8D8" points="3 2 6 4 0 4"></polygon>
                <rect id="Rectangle-2" fill="#D8D8D8" x="0" y="4" width="6" height="4"></rect>
                <rect id="Rectangle-3" fill="#9B9B9B" x="2" y="6" width="2" height="2"></rect>
            </g>
            <g id="maison2" transform="translate(75.000000, 95.000000)">
                <polygon id="Rectangle-6" fill="#D0021B" points="0 1.84253875 3 0 3 2.16540313 0 4"></polygon>
                <polygon id="Rectangle-6" fill="#D0021B" transform="translate(4.500000, 2.500000) scale(-1, 1) translate(-4.500000, -2.500000) " points="3 2.30317344 6 0 6 2.70675392 3 5"></polygon>
                <polygon id="Triangle" fill="#D8D8D8" points="3 2 6 4 0 4"></polygon>
                <rect id="Rectangle-2" fill="#D8D8D8" x="0" y="4" width="6" height="4"></rect>
                <rect id="Rectangle-3" fill="#9B9B9B" x="2" y="6" width="2" height="2"></rect>
            </g>
            <g id="maison2" transform="translate(36.000000, 89.000000)">
                <polygon id="Rectangle-6" fill="#D0021B" points="0 1.84253875 3 0 3 2.16540313 0 4"></polygon>
                <polygon id="Rectangle-6" fill="#D0021B" transform="translate(4.500000, 2.500000) scale(-1, 1) translate(-4.500000, -2.500000) " points="3 2.30317344 6 0 6 2.70675392 3 5"></polygon>
                <polygon id="Triangle" fill="#D8D8D8" points="3 2 6 4 0 4"></polygon>
                <rect id="Rectangle-2" fill="#D8D8D8" x="0" y="4" width="6" height="4"></rect>
                <rect id="Rectangle-3" fill="#9B9B9B" x="2" y="6" width="2" height="2"></rect>
            </g>
            <g id="maison2" transform="translate(55.000000, 32.000000)">
                <polygon id="Rectangle-6" fill="#D0021B" points="0 1.84253875 3 0 3 2.16540313 0 4"></polygon>
                <polygon id="Rectangle-6" fill="#D0021B" transform="translate(4.500000, 2.500000) scale(-1, 1) translate(-4.500000, -2.500000) " points="3 2.30317344 6 0 6 2.70675392 3 5"></polygon>
                <polygon id="Triangle" fill="#D8D8D8" points="3 2 6 4 0 4"></polygon>
                <rect id="Rectangle-2" fill="#D8D8D8" x="0" y="4" width="6" height="4"></rect>
                <rect id="Rectangle-3" fill="#9B9B9B" x="2" y="6" width="2" height="2"></rect>
            </g>
            <g id="maison2" transform="translate(47.000000, 27.000000)">
                <polygon id="Rectangle-6" fill="#D0021B" points="0 1.84253875 3 0 3 2.16540313 0 4"></polygon>
                <polygon id="Rectangle-6" fill="#D0021B" transform="translate(4.500000, 2.500000) scale(-1, 1) translate(-4.500000, -2.500000) " points="3 2.30317344 6 0 6 2.70675392 3 5"></polygon>
                <polygon id="Triangle" fill="#D8D8D8" points="3 2 6 4 0 4"></polygon>
                <rect id="Rectangle-2" fill="#D8D8D8" x="0" y="4" width="6" height="4"></rect>
                <rect id="Rectangle-3" fill="#9B9B9B" x="2" y="6" width="2" height="2"></rect>
            </g>
            <g id="navire" transform="translate(94.000000, 50.000000)">
                <polygon id="Rectangle-7" fill="#F23333" points="0.22247369 7 14.7775263 7 13 10 2 10"></polygon>
                <polygon id="Triangle-2" fill="#FFFFFF" points="7.97818788 0 8 7 2 7"></polygon>
                <path d="M10.5,6.5 L16.5,6.5" id="Line" stroke="#8B572A" stroke-linecap="square"></path>
                <rect id="Rectangle-8" fill="#8B572A" x="15" y="7" width="2" height="3"></rect>
                <path d="M8.5,6.5 L8.5,0.5" id="Line-2" stroke="#8B572A" stroke-linecap="square"></path>
            </g>
            <g id="nuage" transform="translate(109.000000, 18.000000)" fill="#50E3C2" fill-opacity="0.401551178">
                <ellipse id="Oval-3" cx="8.5" cy="4" rx="4.5" ry="4"></ellipse>
                <ellipse id="Oval-3" cx="7.5" cy="6" rx="4.5" ry="4"></ellipse>
                <ellipse id="Oval-3" cx="9.5" cy="8" rx="4.5" ry="4"></ellipse>
                <ellipse id="Oval-3" cx="5.5" cy="8" rx="4.5" ry="4"></ellipse>
                <ellipse id="Oval-3" cx="4.5" cy="5" rx="4.5" ry="4"></ellipse>
            </g>
            <g id="nuage" transform="translate(10.000000, 8.000000)" fill="#50E3C2" fill-opacity="0.401551178">
                <ellipse id="Oval-3" cx="8.5" cy="4" rx="4.5" ry="4"></ellipse>
                <ellipse id="Oval-3" cx="7.5" cy="6" rx="4.5" ry="4"></ellipse>
                <ellipse id="Oval-3" cx="9.5" cy="8" rx="4.5" ry="4"></ellipse>
                <ellipse id="Oval-3" cx="5.5" cy="8" rx="4.5" ry="4"></ellipse>
                <ellipse id="Oval-3" cx="4.5" cy="5" rx="4.5" ry="4"></ellipse>
            </g>
            <g id="nuage" transform="translate(0.000000, 22.000000)" fill="#50E3C2" fill-opacity="0.401551178">
                <ellipse id="Oval-3" cx="8.5" cy="4" rx="4.5" ry="4"></ellipse>
                <ellipse id="Oval-3" cx="7.5" cy="6" rx="4.5" ry="4"></ellipse>
                <ellipse id="Oval-3" cx="9.5" cy="8" rx="4.5" ry="4"></ellipse>
                <ellipse id="Oval-3" cx="5.5" cy="8" rx="4.5" ry="4"></ellipse>
                <ellipse id="Oval-3" cx="4.5" cy="5" rx="4.5" ry="4"></ellipse>
            </g>
            <g id="soleil" transform="translate(88.000000, 0.000000)">
                <circle id="Oval-4" stroke="#F5A623" fill="#F8E71C" cx="9" cy="10" r="6"></circle>
                <circle id="Oval-5" fill="#F5A623" cx="7" cy="7" r="1"></circle>
                <circle id="Oval-5" fill="#F5A623" cx="11" cy="7" r="1"></circle>
                <path d="M10.5,16.5 L11.5,19.5" id="Line-4" stroke="#F5A623" stroke-linecap="square"></path>
                <path d="M13.5,14.5 L15.5,17.5" id="Line-4" stroke="#F5A623" stroke-linecap="square"></path>
                <path d="M15.5,11.5 L17.5,12.5" id="Line-4" stroke="#F5A623" stroke-linecap="square"></path>
                <path d="M15,8.5 L17,8.5" id="rayon" stroke="#F5A623" stroke-linecap="square"></path>
                <path d="M13.5,5.5 L15.5,4.5" id="rayon" stroke="#F5A623" stroke-linecap="square"></path>
                <path d="M11.5,3.5 L12.5,1.5" id="rayon" stroke="#F5A623" stroke-linecap="square"></path>
                <path d="M8.5,3.5 L8.5,0.5" id="rayon" stroke="#F5A623" stroke-linecap="square"></path>
                <path d="M5.5,4.5 L4.5,1.5" id="rayon" stroke="#F5A623" stroke-linecap="square"></path>
                <path d="M3.5,6.5 L1.5,4.5" id="rayon" stroke="#F5A623" stroke-linecap="square"></path>
                <path d="M2.5,9.5 L0.5,8.5" id="rayon" stroke="#F5A623" stroke-linecap="square"></path>
                <path d="M3.5,12.5 L1.5,12.5" id="rayon" stroke="#F5A623" stroke-linecap="square"></path>
                <path d="M4.5,14.5 L2.5,16.5" id="rayon" stroke="#F5A623" stroke-linecap="square"></path>
                <path d="M7.5,16.5 L6.5,19.5" id="rayon" stroke="#F5A623" stroke-linecap="square"></path>
                <path d="M4.96599276,10.560597 C8.4365518,15.400723 10.1806943,14.9576898 13.2351997,9.98920022" id="sourire" stroke="#F5A623"></path>
            </g>
        </g>
    </g>
</svg>