<?xml version="1.0" encoding="UTF-8"?>
<svg width="52px" height="83px" viewBox="0 0 52 83" version="1.1" xmlns="http://www.w3.org/2000/svg" xmlns:xlink="http://www.w3.org/1999/xlink">
    <!-- Generator: Sketch 48.2 (47327) - http://www.bohemiancoding.com/sketch -->
    <title>WallHotspotMarker</title>
    <desc>Created with Sketch.</desc>
    <defs>
        <filter x="-17.1%" y="-11.2%" width="134.2%" height="126.5%" filterUnits="objectBoundingBox" id="filter-1">
            <feOffset dx="0" dy="1" in="SourceAlpha" result="shadowOffsetOuter1"></feOffset>
            <feGaussianBlur stdDeviation="2" in="shadowOffsetOuter1" result="shadowBlurOuter1"></feGaussianBlur>
            <feColorMatrix values="0 0 0 0 0   0 0 0 0 0   0 0 0 0 0  0 0 0 0.5 0" type="matrix" in="shadowBlurOuter1" result="shadowMatrixOuter1"></feColorMatrix>
            <feMerge>
                <feMergeNode in="shadowMatrixOuter1"></feMergeNode>
                <feMergeNode in="SourceGraphic"></feMergeNode>
            </feMerge>
        </filter>
        <rect id="path-2" x="0" y="0" width="38" height="49" rx="4"></rect>
        <filter x="-74.0%" y="-37.5%" width="248.0%" height="202.8%" filterUnits="objectBoundingBox" id="filter-3">
            <feOffset dx="0" dy="5" in="SourceAlpha" result="shadowOffsetOuter1"></feOffset>
            <feGaussianBlur stdDeviation="5" in="shadowOffsetOuter1" result="shadowBlurOuter1"></feGaussianBlur>
            <feColorMatrix values="0 0 0 0 0   0 0 0 0 0   0 0 0 0 0  0 0 0 0.752179574 0" type="matrix" in="shadowBlurOuter1" result="shadowMatrixOuter1"></feColorMatrix>
            <feMerge>
                <feMergeNode in="shadowMatrixOuter1"></feMergeNode>
                <feMergeNode in="SourceGraphic"></feMergeNode>
            </feMerge>
        </filter>
    </defs>
    <g id="WallHotspotMarker" stroke="none" stroke-width="1" fill="none" fill-rule="evenodd" transform="translate(-27.000000, -18.000000)">
        <g transform="translate(31.000000, 21.000000)">
            <g id="drive-ms-word" filter="url(#filter-1)">
                <g id="Rectangle-2">
                    <use fill="#FFFFFF" fill-rule="evenodd" xlink:href="#path-2"></use>
                    <rect stroke="#009688" stroke-width="1" x="0.5" y="0.5" width="37" height="48" rx="4"></rect>
                </g>
                <path d="M26,7 L12,7 C10.9,7 10,7.9 10,9 L10,23 C10,24.1 10.9,25 12,25 L26,25 C27.1,25 28,24.1 28,23 L28,9 C28,7.9 27.1,7 26,7 L26,7 Z M22.5,21 L21,21 L19,13.5 L17,21 L15.5,21 L13.1,11 L14.8,11 L16.3,18.5 L18.3,11 L19.7,11 L21.7,18.5 L23.2,11 L24.9,11 L22.5,21 L22.5,21 Z" id="Shape" fill="#009688"></path>
            </g>
            <ellipse id="Oval" stroke="#F5A623" fill="#D8D8D8" cx="19.5" cy="65" rx="13.5" ry="6"></ellipse>
            <g id="place" filter="url(#filter-3)" transform="translate(7.000000, 30.000000)" fill="#009688" stroke="#FFFFFF">
                <path d="M12.5,0 C5.53571429,0 0,5.53571429 0,12.5 C0,21.7857143 12.5,35.7142857 12.5,35.7142857 C12.5,35.7142857 25,21.7857143 25,12.5 C25,5.53571429 19.4642857,0 12.5,0 L12.5,0 Z M12.5,16.9642857 C10,16.9642857 8.03571429,15 8.03571429,12.5 C8.03571429,10 10,8.03571429 12.5,8.03571429 C15,8.03571429 16.9642857,10 16.9642857,12.5 C16.9642857,15 15,16.9642857 12.5,16.9642857 L12.5,16.9642857 Z" id="Shape"></path>
            </g>
            <g id="create" transform="translate(29.000000, 5.000000)" fill="#009688" stroke="#FFFFFF">
                <path d="M0,14.2 L0,18 L3.8,18 L14.8,6.9 L11,3.1 L0,14.2 L0,14.2 Z M17.7,4 C18.1,3.6 18.1,3 17.7,2.6 L15.4,0.3 C15,-0.1 14.4,-0.1 14,0.3 L12.2,2.1 L16,5.9 L17.7,4 L17.7,4 Z" id="Shape"></path>
            </g>
        </g>
    </g>
</svg>